<?xml version="1.0" encoding="UTF-8"?>
<svg width="410" height="404" viewBox="0 0 410 404" fill="none" xmlns="http://www.w3.org/2000/svg">
  <defs>
    <linearGradient id="g1" x1="201.96" y1="53.39" x2="237.76" y2="250.41" gradientUnits="userSpaceOnUse">
      <stop stop-color="#41D1FF"/>
      <stop offset="1" stop-color="#BD34FE"/>
    </linearGradient>
    <linearGradient id="g2" x1="201.96" y1="58.39" x2="224.01" y2="244.39" gradientUnits="userSpaceOnUse">
      <stop stop-color="#FFEA83"/>
      <stop offset="0.083" stop-color="#FFDD35"/>
      <stop offset="1" stop-color="#FFA800"/>
    </linearGradient>
  </defs>
  <path d="M399.641 59.5246L215.643 388.545C211.844 395.338 202.084 395.326 198.302 388.521L10.3601 59.5563C6.07243 51.7934 12.5028 42.3314 21.3404 43.7586L205.223 74.7806C206.398 74.9754 207.601 74.9744 208.776 74.7778L388.611 43.8056C397.434 42.3594 403.88 51.7825 399.63 59.5499L399.641 59.5246Z" fill="url(#g1)"/>
  <path d="M292.965 1.5744L156.801 27.8604C153.563 28.4897 151.557 31.6173 152.188 34.855L178.65 172.061C179.927 178.733 188.697 180.606 192.593 175.194L200.836 163.796C201.444 162.945 202.652 162.817 203.433 163.508L248.585 203.714C252.947 207.561 259.817 205.405 261.044 199.592L301.498 12.2873C302.232 8.84084 299.593 5.64526 296.101 6.32499Z" fill="url(#g2)"/>
</svg>
